<?xml version="1.0" encoding="utf-8"?>
<!-- Generator: Adobe Illustrator 18.1.1, SVG Export Plug-In . SVG Version: 6.00 Build 0)  -->
<!DOCTYPE svg PUBLIC "-//W3C//DTD SVG 1.1//EN" "http://www.w3.org/Graphics/SVG/1.1/DTD/svg11.dtd">
<svg version="1.1" xmlns="http://www.w3.org/2000/svg" xmlns:xlink="http://www.w3.org/1999/xlink" x="0px" y="0px"
	 viewBox="0 0 500 500" enable-background="new 0 0 500 500" xml:space="preserve">
<g id="Layer_2">
</g>
<g id="exit">
	<g>
		<path fill="#333333" d="M339.8,132.6c3.1-3.1,8.2-3.2,11.3-0.1l12.9,12.8c3.1,3.1,3.2,8.2,0.1,11.3l-208,210.6
			c-3.1,3.1-8.2,3.2-11.3,0.1l-12.9-12.8c-3.1-3.1-3.2-8.2-0.1-11.3L339.8,132.6z"/>
	</g>
	<path fill="#333333" stroke="#333333" stroke-width="8" stroke-miterlimit="10" d="M250,258.1"/>
	<path fill="#333333" d="M217.6,273.1"/>
	<path fill="#333333" d="M217.5,70.2"/>
	<path fill="none" stroke="#333333" stroke-width="8" stroke-miterlimit="10" d="M247.1,24.2"/>
	<g>
		<path fill="#333333" d="M374.3,336.8c3.1,3.1,3.2,8.2,0.1,11.3L361.6,361c-3.1,3.1-8.2,3.2-11.3,0.1L139.8,153
			c-3.1-3.1-3.2-8.2-0.1-11.3l12.8-12.9c3.1-3.1,8.2-3.2,11.3-0.1L374.3,336.8z"/>
	</g>
</g>
</svg>
